<svg id="visual" viewBox="0 0 900 600" width="900" height="600" xmlns="http://www.w3.org/2000/svg" xmlns:xlink="http://www.w3.org/1999/xlink" version="1.1"><g stroke-width="1" stroke-linejoin="bevel"><path d="M430 311L485 290L427 177Z" fill="#297ea6" stroke="#297ea6"></path><path d="M485 290L516 181L427 177Z" fill="#277297" stroke="#277297"></path><path d="M427 177L300 221L430 311Z" fill="#081a28" stroke="#081a28"></path><path d="M516 181L528 135L427 177Z" fill="#15384f" stroke="#15384f"></path><path d="M427 177L361 95L300 221Z" fill="#1d4e6b" stroke="#1d4e6b"></path><path d="M300 221L293 319L430 311Z" fill="#1d4e6b" stroke="#1d4e6b"></path><path d="M528 135L361 95L427 177Z" fill="#246688" stroke="#246688"></path><path d="M485 290L606 208L516 181Z" fill="#1d4e6b" stroke="#1d4e6b"></path><path d="M516 181L606 208L528 135Z" fill="#19435d" stroke="#19435d"></path><path d="M293 319L409 419L430 311Z" fill="#00101c" stroke="#00101c"></path><path d="M430 311L470 430L485 290Z" fill="#205a7a" stroke="#205a7a"></path><path d="M485 290L624 320L606 208Z" fill="#277297" stroke="#277297"></path><path d="M409 419L470 430L430 311Z" fill="#205a7a" stroke="#205a7a"></path><path d="M361 95L303 94L300 221Z" fill="#1d4e6b" stroke="#1d4e6b"></path><path d="M186 261L274 403L293 319Z" fill="#081a28" stroke="#081a28"></path><path d="M470 430L624 320L485 290Z" fill="#277297" stroke="#277297"></path><path d="M606 208L615 136L528 135Z" fill="#1d4e6b" stroke="#1d4e6b"></path><path d="M528 135L434 0L361 95Z" fill="#081a28" stroke="#081a28"></path><path d="M674 193L615 136L606 208Z" fill="#205a7a" stroke="#205a7a"></path><path d="M293 319L274 403L409 419Z" fill="#19435d" stroke="#19435d"></path><path d="M409 419L397 485L470 430Z" fill="#19435d" stroke="#19435d"></path><path d="M186 261L293 319L300 221Z" fill="#205a7a" stroke="#205a7a"></path><path d="M624 320L674 193L606 208Z" fill="#205a7a" stroke="#205a7a"></path><path d="M506 0L434 0L528 135Z" fill="#277297" stroke="#277297"></path><path d="M361 95L279 0L303 94Z" fill="#277297" stroke="#277297"></path><path d="M291 497L397 485L409 419Z" fill="#1d4e6b" stroke="#1d4e6b"></path><path d="M470 430L623 436L624 320Z" fill="#081a28" stroke="#081a28"></path><path d="M177 203L186 261L300 221Z" fill="#246688" stroke="#246688"></path><path d="M593 0L506 0L528 135Z" fill="#297ea6" stroke="#297ea6"></path><path d="M593 0L528 135L615 136Z" fill="#00101c" stroke="#00101c"></path><path d="M279 0L231 91L303 94Z" fill="#1d4e6b" stroke="#1d4e6b"></path><path d="M303 94L231 91L300 221Z" fill="#277297" stroke="#277297"></path><path d="M231 91L177 203L300 221Z" fill="#00101c" stroke="#00101c"></path><path d="M625 461L623 436L470 430Z" fill="#112e42" stroke="#112e42"></path><path d="M624 320L710 314L674 193Z" fill="#112e42" stroke="#112e42"></path><path d="M736 416L710 314L624 320Z" fill="#205a7a" stroke="#205a7a"></path><path d="M494 535L625 461L470 430Z" fill="#1d4e6b" stroke="#1d4e6b"></path><path d="M623 436L736 416L624 320Z" fill="#246688" stroke="#246688"></path><path d="M434 0L279 0L361 95Z" fill="#205a7a" stroke="#205a7a"></path><path d="M685 62L593 0L615 136Z" fill="#1d4e6b" stroke="#1d4e6b"></path><path d="M274 403L291 497L409 419Z" fill="#277297" stroke="#277297"></path><path d="M397 485L494 535L470 430Z" fill="#081a28" stroke="#081a28"></path><path d="M196 438L291 497L274 403Z" fill="#0c2435" stroke="#0c2435"></path><path d="M401 600L494 535L397 485Z" fill="#081a28" stroke="#081a28"></path><path d="M674 193L685 62L615 136Z" fill="#205a7a" stroke="#205a7a"></path><path d="M815 169L685 62L674 193Z" fill="#297ea6" stroke="#297ea6"></path><path d="M186 261L196 438L274 403Z" fill="#081a28" stroke="#081a28"></path><path d="M82 420L196 438L186 261Z" fill="#1d4e6b" stroke="#1d4e6b"></path><path d="M94 129L125 226L177 203Z" fill="#205a7a" stroke="#205a7a"></path><path d="M177 203L125 226L186 261Z" fill="#0c2435" stroke="#0c2435"></path><path d="M94 129L177 203L231 91Z" fill="#277297" stroke="#277297"></path><path d="M279 0L198 0L231 91Z" fill="#081a28" stroke="#081a28"></path><path d="M672 508L736 416L625 461Z" fill="#297ea6" stroke="#297ea6"></path><path d="M625 461L736 416L623 436Z" fill="#277297" stroke="#277297"></path><path d="M710 314L790 267L674 193Z" fill="#081a28" stroke="#081a28"></path><path d="M594 600L672 508L625 461Z" fill="#205a7a" stroke="#205a7a"></path><path d="M794 418L790 267L710 314Z" fill="#00101c" stroke="#00101c"></path><path d="M82 420L171 483L196 438Z" fill="#246688" stroke="#246688"></path><path d="M196 438L171 483L291 497Z" fill="#081a28" stroke="#081a28"></path><path d="M291 497L401 600L397 485Z" fill="#277297" stroke="#277297"></path><path d="M273 600L401 600L291 497Z" fill="#19435d" stroke="#19435d"></path><path d="M494 535L594 600L625 461Z" fill="#205a7a" stroke="#205a7a"></path><path d="M128 0L94 129L231 91Z" fill="#0c2435" stroke="#0c2435"></path><path d="M125 226L62 291L186 261Z" fill="#246688" stroke="#246688"></path><path d="M401 600L494 600L494 535Z" fill="#0c2435" stroke="#0c2435"></path><path d="M0 206L62 291L125 226Z" fill="#112e42" stroke="#112e42"></path><path d="M825 82L726 0L685 62Z" fill="#277297" stroke="#277297"></path><path d="M685 62L726 0L593 0Z" fill="#297ea6" stroke="#297ea6"></path><path d="M790 267L815 169L674 193Z" fill="#246688" stroke="#246688"></path><path d="M494 600L594 600L494 535Z" fill="#297ea6" stroke="#297ea6"></path><path d="M185 600L273 600L291 497Z" fill="#112e42" stroke="#112e42"></path><path d="M198 0L128 0L231 91Z" fill="#246688" stroke="#246688"></path><path d="M62 291L82 420L186 261Z" fill="#15384f" stroke="#15384f"></path><path d="M171 483L185 600L291 497Z" fill="#15384f" stroke="#15384f"></path><path d="M839 515L794 418L736 416Z" fill="#205a7a" stroke="#205a7a"></path><path d="M736 416L794 418L710 314Z" fill="#112e42" stroke="#112e42"></path><path d="M790 267L900 294L815 169Z" fill="#112e42" stroke="#112e42"></path><path d="M839 515L736 416L672 508Z" fill="#205a7a" stroke="#205a7a"></path><path d="M815 169L825 82L685 62Z" fill="#081a28" stroke="#081a28"></path><path d="M900 97L825 82L815 169Z" fill="#00101c" stroke="#00101c"></path><path d="M82 600L185 600L171 483Z" fill="#205a7a" stroke="#205a7a"></path><path d="M0 102L0 206L94 129Z" fill="#081a28" stroke="#081a28"></path><path d="M94 129L0 206L125 226Z" fill="#205a7a" stroke="#205a7a"></path><path d="M62 291L0 413L82 420Z" fill="#081a28" stroke="#081a28"></path><path d="M0 206L0 300L62 291Z" fill="#0c2435" stroke="#0c2435"></path><path d="M82 420L71 491L171 483Z" fill="#081a28" stroke="#081a28"></path><path d="M0 413L71 491L82 420Z" fill="#15384f" stroke="#15384f"></path><path d="M128 0L0 102L94 129Z" fill="#205a7a" stroke="#205a7a"></path><path d="M594 600L725 600L672 508Z" fill="#112e42" stroke="#112e42"></path><path d="M825 82L827 0L726 0Z" fill="#0c2435" stroke="#0c2435"></path><path d="M900 365L790 267L794 418Z" fill="#297ea6" stroke="#297ea6"></path><path d="M900 365L900 294L790 267Z" fill="#1d4e6b" stroke="#1d4e6b"></path><path d="M825 82L900 0L827 0Z" fill="#277297" stroke="#277297"></path><path d="M0 300L0 413L62 291Z" fill="#112e42" stroke="#112e42"></path><path d="M900 294L900 163L815 169Z" fill="#297ea6" stroke="#297ea6"></path><path d="M839 515L900 365L794 418Z" fill="#081a28" stroke="#081a28"></path><path d="M725 600L839 515L672 508Z" fill="#112e42" stroke="#112e42"></path><path d="M900 163L900 97L815 169Z" fill="#112e42" stroke="#112e42"></path><path d="M128 0L0 0L0 102Z" fill="#00101c" stroke="#00101c"></path><path d="M71 491L82 600L171 483Z" fill="#00101c" stroke="#00101c"></path><path d="M0 537L82 600L71 491Z" fill="#1d4e6b" stroke="#1d4e6b"></path><path d="M725 600L810 600L839 515Z" fill="#00101c" stroke="#00101c"></path><path d="M839 515L900 530L900 365Z" fill="#297ea6" stroke="#297ea6"></path><path d="M900 97L900 0L825 82Z" fill="#081a28" stroke="#081a28"></path><path d="M0 413L0 537L71 491Z" fill="#0c2435" stroke="#0c2435"></path><path d="M900 600L900 530L839 515Z" fill="#0c2435" stroke="#0c2435"></path><path d="M0 537L0 600L82 600Z" fill="#205a7a" stroke="#205a7a"></path><path d="M810 600L900 600L839 515Z" fill="#112e42" stroke="#112e42"></path></g></svg>