<svg id="visual" viewBox="0 0 900 600" width="900" height="600" xmlns="http://www.w3.org/2000/svg" xmlns:xlink="http://www.w3.org/1999/xlink" version="1.1"><rect x="0" y="0" width="900" height="600" fill="#ffffff"></rect><defs><linearGradient id="grad1_0" x1="33.3%" y1="0%" x2="100%" y2="100%"><stop offset="20%" stop-color="#4facf7" stop-opacity="1"></stop><stop offset="80%" stop-color="#4facf7" stop-opacity="1"></stop></linearGradient></defs><defs><linearGradient id="grad1_1" x1="33.3%" y1="0%" x2="100%" y2="100%"><stop offset="20%" stop-color="#4facf7" stop-opacity="1"></stop><stop offset="80%" stop-color="#b4d4fc" stop-opacity="1"></stop></linearGradient></defs><defs><linearGradient id="grad1_2" x1="33.3%" y1="0%" x2="100%" y2="100%"><stop offset="20%" stop-color="#ffffff" stop-opacity="1"></stop><stop offset="80%" stop-color="#b4d4fc" stop-opacity="1"></stop></linearGradient></defs><defs><linearGradient id="grad2_0" x1="0%" y1="0%" x2="66.7%" y2="100%"><stop offset="20%" stop-color="#4facf7" stop-opacity="1"></stop><stop offset="80%" stop-color="#4facf7" stop-opacity="1"></stop></linearGradient></defs><defs><linearGradient id="grad2_1" x1="0%" y1="0%" x2="66.7%" y2="100%"><stop offset="20%" stop-color="#b4d4fc" stop-opacity="1"></stop><stop offset="80%" stop-color="#4facf7" stop-opacity="1"></stop></linearGradient></defs><defs><linearGradient id="grad2_2" x1="0%" y1="0%" x2="66.7%" y2="100%"><stop offset="20%" stop-color="#b4d4fc" stop-opacity="1"></stop><stop offset="80%" stop-color="#ffffff" stop-opacity="1"></stop></linearGradient></defs><g transform="translate(900, 0)"><path d="M0 243.4C-27.9 230.9 -55.8 218.5 -86.5 208.8C-117.2 199.1 -150.7 192.1 -172.1 172.1C-193.5 152 -202.6 118.9 -212.5 88C-222.3 57.2 -232.9 28.6 -243.4 0L0 0Z" fill="#dbe9fd"></path><path d="M0 162.2C-18.6 154 -37.2 145.7 -57.7 139.2C-78.1 132.7 -100.5 128.1 -114.7 114.7C-129 101.4 -135.1 79.3 -141.7 58.7C-148.2 38.1 -155.2 19.1 -162.2 0L0 0Z" fill="#88c0f9"></path><path d="M0 81.1C-9.3 77 -18.6 72.8 -28.8 69.6C-39.1 66.4 -50.2 64 -57.4 57.4C-64.5 50.7 -67.5 39.6 -70.8 29.3C-74.1 19.1 -77.6 9.5 -81.1 0L0 0Z" fill="#4facf7"></path></g><g transform="translate(0, 600)"><path d="M0 -243.4C28 -227.9 56.1 -212.5 82.7 -199.6C109.3 -186.6 134.4 -176.3 159.8 -159.8C185.2 -143.3 210.9 -120.8 224.8 -93.1C238.8 -65.5 241.1 -32.7 243.4 0L0 0Z" fill="#dbe9fd"></path><path d="M0 -162.2C18.7 -151.9 37.4 -141.6 55.1 -133C72.8 -124.4 89.6 -117.5 106.5 -106.5C123.5 -95.6 140.6 -80.5 149.9 -62.1C159.2 -43.7 160.7 -21.8 162.2 0L0 0Z" fill="#88c0f9"></path><path d="M0 -81.1C9.3 -76 18.7 -70.8 27.6 -66.5C36.4 -62.2 44.8 -58.8 53.3 -53.3C61.7 -47.8 70.3 -40.3 74.9 -31C79.6 -21.8 80.4 -10.9 81.1 0L0 0Z" fill="#4facf7"></path></g></svg>